<svg version="1.1" id="Layer_1" xmlns="http://www.w3.org/2000/svg" xmlns:xlink="http://www.w3.org/1999/xlink" x="0px" y="0px"
	 width="100%" viewBox="0 0 512 512" enable-background="new 0 0 512 512" xml:space="preserve">
<path fill="#FF4500" opacity="1.000000" stroke="none" 
	d="
M225.000000,1.000004 
	C246.020889,1.000000 267.041779,1.000000 288.310974,1.391664 
	C289.237305,2.179180 289.875000,2.810787 290.599548,2.934806 
	C298.787750,4.336308 307.092133,5.215574 315.168579,7.084993 
	C343.299042,13.596206 369.655518,24.470982 394.065948,39.996902 
	C416.049194,53.979053 435.278046,71.053146 452.314087,90.736160 
	C464.671082,105.013077 475.263123,120.481033 483.955994,137.168777 
	C498.058594,164.241547 507.868286,192.749161 511.095734,223.299759 
	C511.161926,223.926559 512.340393,224.435883 513.000000,225.000000 
	C513.000000,246.020889 513.000000,267.041779 512.608887,288.310333 
	C511.821503,289.236023 511.216614,289.869263 511.059937,290.598785 
	C508.058075,304.577332 505.664703,318.714233 502.012817,332.518738 
	C497.078247,351.171783 489.030640,368.638519 479.280487,385.294556 
	C469.832611,401.434174 459.134674,416.693420 446.175781,430.205841 
	C438.718109,437.982025 430.831207,445.373169 422.824493,452.590302 
	C408.939728,465.105743 393.381134,475.321808 376.866455,483.955200 
	C349.793610,498.108093 321.244843,507.813324 290.700348,511.095520 
	C290.072601,511.162994 289.564117,512.340393 289.000000,513.000000 
	C267.979095,513.000000 246.958206,513.000000 225.690247,512.609619 
	C224.765457,511.822540 224.132660,511.216614 223.403412,511.060059 
	C209.262619,508.024506 194.943665,505.659210 181.002655,501.892822 
	C163.196426,497.082214 146.488373,489.380798 130.441055,480.194641 
	C113.751198,470.640625 98.103851,459.679718 84.134972,446.495117 
	C76.181396,438.988098 68.714050,430.933563 61.388916,422.800293 
	C48.877808,408.908905 38.664928,393.345612 30.029274,376.825562 
	C15.883043,349.763702 6.184310,321.231171 2.904433,290.701843 
	C2.836942,290.073608 1.659582,289.564606 1.000000,289.000000 
	C1.000000,267.645782 1.000000,246.291550 1.375919,224.724731 
	C2.156996,223.836197 2.775799,223.207031 2.935660,222.477356 
	C5.925584,208.829788 8.304659,195.020248 11.938207,181.548462 
	C17.394213,161.319733 26.350988,142.499374 37.117496,124.536964 
	C52.258259,99.276703 71.478600,77.431702 94.033043,58.712296 
	C112.152519,43.673752 132.096344,31.271421 153.887024,21.976555 
	C176.025772,12.533211 198.813583,5.625937 222.799652,2.918934 
	C223.595169,2.829156 224.269302,1.663927 225.000000,1.000004 
M239.620026,213.040329 
	C217.061630,215.282379 196.064758,222.249054 176.867462,234.296295 
	C173.505768,236.405930 171.416382,236.786316 167.812881,234.455597 
	C154.270416,225.696503 136.195648,230.088226 127.543991,243.731491 
	C118.843178,257.452271 122.818382,275.069855 136.406296,284.169067 
	C137.916901,285.180664 138.971024,287.651794 139.242142,289.585510 
	C139.956848,294.683105 139.662170,299.942474 140.590393,304.986328 
	C144.237411,324.803680 155.967468,339.384369 171.760849,350.935272 
	C194.657761,367.681458 220.836578,375.135284 248.814804,376.498566 
	C281.010925,378.067352 311.558807,371.990448 338.789337,353.937592 
	C361.059021,339.173553 375.802704,319.535431 375.318878,291.346466 
	C375.252594,287.484436 376.281006,285.177094 379.575104,282.864166 
	C389.525269,275.877625 393.709137,263.848602 390.824615,252.495605 
	C387.928436,241.096664 377.978149,232.388870 366.080444,230.754700 
	C356.729706,229.470352 348.756683,232.627838 341.550629,238.464172 
	C318.070038,222.700043 292.266174,214.527191 263.744629,213.593643 
	C268.187866,192.310333 272.516876,171.574081 276.903198,150.563354 
	C291.099945,153.520645 304.615814,156.262512 318.072113,159.270767 
	C319.220673,159.527527 320.383942,161.420135 320.842590,162.786957 
	C323.988434,172.162872 331.864746,178.108109 340.954865,177.730804 
	C350.101746,177.351166 358.138275,170.751190 360.001251,162.088989 
	C362.010010,152.748947 357.740631,143.624466 349.399017,139.429886 
	C340.991791,135.202347 331.479492,137.055450 324.996765,144.532074 
	C323.218231,146.583267 321.718079,147.104080 319.071259,146.550934 
	C304.578827,143.522217 290.042145,140.703796 275.511993,137.857437 
	C268.923035,136.566711 266.728394,137.976379 265.314636,144.513947 
	C263.134857,154.593994 261.085571,164.702164 258.942139,174.790176 
	C256.286285,187.289749 253.590851,199.780914 250.899094,212.338379 
	C247.165344,212.574860 243.850845,212.784790 239.620026,213.040329 
z"/>
<path fill="#000000" opacity="1.000000" stroke="none" 
	d="
M1.000000,289.468658 
	C1.659582,289.564606 2.836942,290.073608 2.904433,290.701843 
	C6.184310,321.231171 15.883043,349.763702 30.029274,376.825562 
	C38.664928,393.345612 48.877808,408.908905 61.388916,422.800293 
	C68.714050,430.933563 76.181396,438.988098 84.134972,446.495117 
	C98.103851,459.679718 113.751198,470.640625 130.441055,480.194641 
	C146.488373,489.380798 163.196426,497.082214 181.002655,501.892822 
	C194.943665,505.659210 209.262619,508.024506 223.403412,511.060059 
	C224.132660,511.216614 224.765457,511.822540 225.221588,512.609619 
	C150.406296,513.000000 75.812599,513.000000 1.000000,513.000000 
	C1.000000,438.645905 1.000000,364.291626 1.000000,289.468658 
z"/>
<path fill="#000000" opacity="1.000000" stroke="none" 
	d="
M513.000000,224.531342 
	C512.340393,224.435883 511.161926,223.926559 511.095734,223.299759 
	C507.868286,192.749161 498.058594,164.241547 483.955994,137.168777 
	C475.263123,120.481033 464.671082,105.013077 452.314087,90.736160 
	C435.278046,71.053146 416.049194,53.979053 394.065948,39.996902 
	C369.655518,24.470982 343.299042,13.596206 315.168579,7.084993 
	C307.092133,5.215574 298.787750,4.336308 290.599548,2.934806 
	C289.875000,2.810787 289.237305,2.179180 288.779602,1.391664 
	C363.593719,1.000000 438.187408,1.000000 513.000000,1.000000 
	C513.000000,75.354088 513.000000,149.708389 513.000000,224.531342 
z"/>
<path fill="#000000" opacity="1.000000" stroke="none" 
	d="
M289.468658,513.000000 
	C289.564117,512.340393 290.072601,511.162994 290.700348,511.095520 
	C321.244843,507.813324 349.793610,498.108093 376.866455,483.955200 
	C393.381134,475.321808 408.939728,465.105743 422.824493,452.590302 
	C430.831207,445.373169 438.718109,437.982025 446.175781,430.205841 
	C459.134674,416.693420 469.832611,401.434174 479.280487,385.294556 
	C489.030640,368.638519 497.078247,351.171783 502.012817,332.518738 
	C505.664703,318.714233 508.058075,304.577332 511.059937,290.598785 
	C511.216614,289.869263 511.821503,289.236023 512.608887,288.778992 
	C513.000000,363.593719 513.000000,438.187408 513.000000,513.000000 
	C438.645905,513.000000 364.291626,513.000000 289.468658,513.000000 
z"/>
<path fill="#000000" opacity="1.000000" stroke="none" 
	d="
M224.531342,1.000004 
	C224.269302,1.663927 223.595169,2.829156 222.799652,2.918934 
	C198.813583,5.625937 176.025772,12.533211 153.887024,21.976555 
	C132.096344,31.271421 112.152519,43.673752 94.033043,58.712296 
	C71.478600,77.431702 52.258259,99.276703 37.117496,124.536964 
	C26.350988,142.499374 17.394213,161.319733 11.938207,181.548462 
	C8.304659,195.020248 5.925584,208.829788 2.935660,222.477356 
	C2.775799,223.207031 2.156996,223.836197 1.375919,224.256073 
	C1.000000,149.739456 1.000000,75.478920 1.000000,1.000000 
	C75.354088,1.000000 149.708389,1.000000 224.531342,1.000004 
z"/>
<path fill="#FFFEFD" opacity="1.000000" stroke="none" 
	d="
M240.078186,213.017517 
	C243.850845,212.784790 247.165344,212.574860 250.899094,212.338379 
	C253.590851,199.780914 256.286285,187.289749 258.942139,174.790176 
	C261.085571,164.702164 263.134857,154.593994 265.314636,144.513947 
	C266.728394,137.976379 268.923035,136.566711 275.511993,137.857437 
	C290.042145,140.703796 304.578827,143.522217 319.071259,146.550934 
	C321.718079,147.104080 323.218231,146.583267 324.996765,144.532074 
	C331.479492,137.055450 340.991791,135.202347 349.399017,139.429886 
	C357.740631,143.624466 362.010010,152.748947 360.001251,162.088989 
	C358.138275,170.751190 350.101746,177.351166 340.954865,177.730804 
	C331.864746,178.108109 323.988434,172.162872 320.842590,162.786957 
	C320.383942,161.420135 319.220673,159.527527 318.072113,159.270767 
	C304.615814,156.262512 291.099945,153.520645 276.903198,150.563354 
	C272.516876,171.574081 268.187866,192.310333 263.744629,213.593643 
	C292.266174,214.527191 318.070038,222.700043 341.550629,238.464172 
	C348.756683,232.627838 356.729706,229.470352 366.080444,230.754700 
	C377.978149,232.388870 387.928436,241.096664 390.824615,252.495605 
	C393.709137,263.848602 389.525269,275.877625 379.575104,282.864166 
	C376.281006,285.177094 375.252594,287.484436 375.318878,291.346466 
	C375.802704,319.535431 361.059021,339.173553 338.789337,353.937592 
	C311.558807,371.990448 281.010925,378.067352 248.814804,376.498566 
	C220.836578,375.135284 194.657761,367.681458 171.760849,350.935272 
	C155.967468,339.384369 144.237411,324.803680 140.590393,304.986328 
	C139.662170,299.942474 139.956848,294.683105 139.242142,289.585510 
	C138.971024,287.651794 137.916901,285.180664 136.406296,284.169067 
	C122.818382,275.069855 118.843178,257.452271 127.543991,243.731491 
	C136.195648,230.088226 154.270416,225.696503 167.812881,234.455597 
	C171.416382,236.786316 173.505768,236.405930 176.867462,234.296295 
	C196.064758,222.249054 217.061630,215.282379 240.078186,213.017517 
M319.505951,293.904510 
	C320.262970,292.618073 321.264038,291.415070 321.737091,290.031525 
	C324.656097,281.494781 324.440735,273.323822 318.172943,266.187775 
	C312.930634,260.219299 304.269257,258.094635 296.762421,260.700775 
	C288.717743,263.493622 283.429596,270.594910 283.060303,279.100891 
	C282.676514,287.940796 287.380219,295.678619 295.202881,299.076019 
	C303.414795,302.642487 312.470886,300.893524 319.505951,293.904510 
M205.196686,298.782684 
	C213.798431,300.100494 221.041290,297.791412 226.143021,290.481720 
	C230.717743,283.927124 231.099182,276.879944 227.526230,269.762451 
	C223.455536,261.653503 214.065262,257.307251 205.319473,259.268982 
	C196.452820,261.257812 190.112839,268.791351 189.505081,278.060577 
	C188.898926,287.305511 194.515137,295.023834 205.196686,298.782684 
M220.069046,330.502533 
	C218.673416,329.600037 217.233032,328.759064 215.891159,327.782684 
	C212.729752,325.482330 209.352417,324.356628 206.776718,328.117737 
	C204.207886,331.868805 206.501816,334.417969 209.760971,336.678925 
	C228.470337,349.657959 249.402710,352.074738 271.257660,349.477814 
	C284.018188,347.961487 295.560425,342.948395 305.973450,335.389038 
	C308.429413,333.606140 309.659729,331.366272 307.917877,328.568146 
	C306.185577,325.785400 303.493073,325.242249 300.502411,326.431396 
	C299.750305,326.730469 299.140961,327.373199 298.437683,327.812622 
	C273.113831,343.633759 247.177048,343.990997 220.069046,330.502533 
z"/>
<path fill="#FF4703" opacity="1.000000" stroke="none" 
	d="
M319.270477,294.188965 
	C312.470886,300.893524 303.414795,302.642487 295.202881,299.076019 
	C287.380219,295.678619 282.676514,287.940796 283.060303,279.100891 
	C283.429596,270.594910 288.717743,263.493622 296.762421,260.700775 
	C304.269257,258.094635 312.930634,260.219299 318.172943,266.187775 
	C324.440735,273.323822 324.656097,281.494781 321.737091,290.031525 
	C321.264038,291.415070 320.262970,292.618073 319.270477,294.188965 
z"/>
<path fill="#FF4703" opacity="1.000000" stroke="none" 
	d="
M204.796997,298.654785 
	C194.515137,295.023834 188.898926,287.305511 189.505081,278.060577 
	C190.112839,268.791351 196.452820,261.257812 205.319473,259.268982 
	C214.065262,257.307251 223.455536,261.653503 227.526230,269.762451 
	C231.099182,276.879944 230.717743,283.927124 226.143021,290.481720 
	C221.041290,297.791412 213.798431,300.100494 204.796997,298.654785 
z"/>
<path fill="#FF4905" opacity="1.000000" stroke="none" 
	d="
M220.389374,330.692017 
	C247.177048,343.990997 273.113831,343.633759 298.437683,327.812622 
	C299.140961,327.373199 299.750305,326.730469 300.502411,326.431396 
	C303.493073,325.242249 306.185577,325.785400 307.917877,328.568146 
	C309.659729,331.366272 308.429413,333.606140 305.973450,335.389038 
	C295.560425,342.948395 284.018188,347.961487 271.257660,349.477814 
	C249.402710,352.074738 228.470337,349.657959 209.760971,336.678925 
	C206.501816,334.417969 204.207886,331.868805 206.776718,328.117737 
	C209.352417,324.356628 212.729752,325.482330 215.891159,327.782684 
	C217.233032,328.759064 218.673416,329.600037 220.389374,330.692017 
z"/>
</svg>